<?xml version="1.0" encoding="utf-8"?>
<!-- Generator: Adobe Illustrator 22.1.0, SVG Export Plug-In . SVG Version: 6.00 Build 0)  -->
<svg version="1.1" id="Layer_1" xmlns="http://www.w3.org/2000/svg" xmlns:xlink="http://www.w3.org/1999/xlink" x="0px" y="0px"
	 viewBox="0 0 600 600" style="enable-background:new 0 0 600 600;" xml:space="preserve">
<style type="text/css">
	.st0{fill:#FFFFFF;}
</style>
<g>
	<path class="st0" d="M336,483.1c-23.9,0-47.7,0-71.9,0c0-111.5,0-223.7,0-336.3c24,0,47.7,0,71.9,0C336,259.3,336,371.7,336,483.1z
		"/>
	<path class="st0" d="M489.9,468.2c-45-1.8-77.6-15.5-100.3-48.5c-7.8-11.4-12.3-24.3-13.4-38c-0.4-4.8,0.4-10.2,2.3-14.6
		c31.8-71,64-141.9,95.7-213c2.7-6.1,6.6-5.5,11.4-6.1c5.1-0.6,6.4,2.5,8.1,6.1c31.4,69.7,62.7,139.4,94.5,208.9
		c4.2,9.2,4.6,17.8,2.5,27c-8.3,36.2-32,58.5-65.8,70.6C511.9,465.1,497.7,466.5,489.9,468.2z M484,159.8
		c-32.4,71.8-64,141.9-95.9,212.5c64.5,0,127.7,0,191.8,0C548,301.5,516.4,231.5,484,159.8z"/>
	<path class="st0" d="M122,468c-42.3-1.3-73.6-13.7-96.6-43.2c-10.4-13.3-16-28.6-17.3-45.4c-0.3-3.6,0.4-7.7,1.9-11.1
		c32-71.2,64.1-142.4,96.2-213.5c1.3-2.8,1.7-6.7,6.4-5.7c4.8,1,10.2-1.9,13.6,5.6c31.5,70.6,63.3,140.9,95.4,211.2
		c4,8.7,2.9,17.1,0.8,25.5c-9.2,37-34.2,59-69.1,70.4C141.5,465.7,128.8,466.7,122,468z M212.3,372.6
		c-32.1-71.1-63.7-141.1-96-212.8c-32.4,71.9-64,141.9-96,212.8C84.6,372.6,147.8,372.6,212.3,372.6z"/>
	<path class="st0" d="M162.3,566.6c6.1-14.5,15.6-25.4,27-34.7c21.5-17.5,46.4-27.3,73.3-32c42.1-7.3,82.9-3.6,121.7,15.1
		c20.7,9.9,38.3,23.7,49.9,44c1.3,2.2,2.4,4.6,4,7.6C346,566.6,254.6,566.6,162.3,566.6z"/>
	<path class="st0" d="M300.8,113.9c61.7,0,123.5,0,185.2,0c0.8,0,1.6,0,2.4,0c6.3,0.2,10.1,3.5,10.2,8.8c0.1,5.3-3.8,9-10,9
		c-12.2,0.1-24.4,0.1-36.6,0.1c-112.5,0-225,0-337.5,0c-1.4,0-2.9,0.1-4.3,0c-5.2-0.5-8.7-4.3-8.6-9.2c0.1-4.9,3.7-8.6,9.1-8.6
		c15.2-0.1,30.5-0.1,45.7-0.1C204.6,113.9,252.7,113.9,300.8,113.9C300.8,113.9,300.8,113.9,300.8,113.9z"/>
	<path class="st0" d="M263.2,98.8c0.6-13.2-0.1-25.7,2-37.8c3.1-17.9,19.9-28.9,38.9-27.5c16.8,1.3,31.3,16,32.3,33.4
		c0.5,10.5,0.1,21,0.1,31.9C312.1,98.8,288.3,98.8,263.2,98.8z"/>
</g>
</svg>
