<?xml version="1.0" encoding="utf-8"?>
<!-- Generator: Adobe Illustrator 22.1.0, SVG Export Plug-In . SVG Version: 6.00 Build 0)  -->
<svg version="1.1" id="Layer_1" xmlns="http://www.w3.org/2000/svg" xmlns:xlink="http://www.w3.org/1999/xlink" x="0px" y="0px"
	 viewBox="0 0 600 633" style="enable-background:new 0 0 600 633;" xml:space="preserve">
<style type="text/css">
	.st0{fill:#FFFFFF;}
</style>
<g>
	<path class="st0" d="M309.6,608.1c-6.4,0-12.8,0-19.1,0c-1.4-0.4-2.7-1-4.1-1c-36.5-1.5-71.6-9.3-104.6-24.8
		c-92-43.2-148.4-114.7-168.2-214.6c-2.2-11.1-3.3-22.5-4.9-33.8c0-11.9,0-23.8,0-35.7c0.4-1.4,0.9-2.7,1.1-4.1
		c1.8-12.8,2.8-25.8,5.5-38.4C45.4,112.8,179.4,8.5,335.5,27c68.4,8.1,127.3,37.3,174.6,87.4c64.9,68.6,90.8,150.6,78.1,244
		c-9.2,67.6-40.1,124.8-90,171.3c-47.1,43.7-102.8,69-166.8,76C324.2,606.6,316.9,607.4,309.6,608.1z M526.9,342.9
		c-0.5,1.9-0.5,2.8-0.9,3.4c-15.4,28-32.6,54.8-55.4,77.5c-28.1,28.1-61.5,45.3-101.7,46.4c-16.7,0.5-33.4-1.1-50.3-1.8
		c0,34.9,0,70.6,0,106.4C453,566,568.3,449.6,559,300.8C549.6,149.6,415.7,39.5,267.5,58.7C120,77.9,16.6,216.8,45.6,365.9
		C72,501.8,193.3,573.4,282.9,574c0-35.4,0-70.9,0-106.4c-1.1,0-1.7-0.1-2.3,0c-1.7,0.3-3.3,0.6-5,1c-48.3,10.2-91.8,0.9-129.6-31.8
		c-26.2-22.7-45.8-50.6-64.6-79.2c-2.7-4.2-5.3-8.4-8.4-13.3c27.7-6,54.6-10.9,82.1-11.8c47-1.6,88.9,11.3,124.4,43
		c0.9,0.8,1.9,1.4,3.4,2.4c0-35,0-69.2,0-103.6c-1.5,0.2-2.3,0.3-3.1,0.4c-34.4,5.9-65.4-1.1-92.2-24.1
		c-22.6-19.4-38.4-44-54.5-69.7c62.4-22.3,119.3-19.4,168.3,31.4c47.8-45.8,102.9-56.1,164.7-33.5c-16.3,47.3-47.6,78.5-96.6,90
		c-16.9,4-34.2,5.8-51.7,8.7c0,33,0,66.8,0,101.5c2.6-2.2,4.5-3.8,6.4-5.5c19.1-16.5,40.6-28.4,65.1-35c28.4-7.6,57.2-7.5,86-3.9
		C492.3,336.8,509.4,340.1,526.9,342.9z M323.6,433.9c23.5,12.5,61,11.5,89.5-2.7c28.3-14.1,48.1-36.5,62.3-65.2
		c-15.2-2.3-30.2-4.5-45.1-4.3c-29.6,0.3-57,8.4-80.3,27.5C335.8,400.8,326.3,415.4,323.6,433.9z M123.9,364.7
		c10.2,17.8,21.3,32.4,35.1,44.9c21.9,19.7,46.6,33.3,76.9,34.1c15.6,0.4,30.1-3.5,43.2-12.1c-5.8-21.1-25.9-44.7-46.7-55.6
		c-18.3-9.6-38.1-13.4-58.4-13.6C157.8,362.3,141.5,363.9,123.9,364.7z M416,201.6c-34.2-11-78.3,1.1-91.5,39.8
		C358.1,255.4,397.7,238.4,416,201.6z M185.2,201.9c21.3,38.4,60.4,52.9,93.5,39.2C261.3,205.3,224.4,189.7,185.2,201.9z"/>
</g>
</svg>
