<?xml version="1.0" encoding="utf-8"?>
<!-- Generator: Adobe Illustrator 22.1.0, SVG Export Plug-In . SVG Version: 6.00 Build 0)  -->
<svg version="1.1" id="Layer_1" xmlns="http://www.w3.org/2000/svg" xmlns:xlink="http://www.w3.org/1999/xlink" x="0px" y="0px"
	 viewBox="0 0 600 600" style="enable-background:new 0 0 600 600;" xml:space="preserve">
<style type="text/css">
	.st0{fill:#FFFFFF;}
</style>
<g>
	<path class="st0" d="M594.4,271.5c-3.1,10.4-11,15.6-20.5,19.1c-3.8,1.4-7.4,3.2-11.1,4.6c-7.9,3.1-13.3,1-16.8-6.8
		c-16.7-36.5-33.4-73.1-50.1-109.6c-7.1-15.5-14.2-31-21.2-46.5c-4.2-9.2-2-14.6,7.4-18.6c5.3-2.3,10.5-4.6,15.8-6.8
		c13.5-5.4,22.6-2.2,28.8,11c10,21.3,19.7,42.8,29.5,64.2c10.8,23.7,21.7,47.3,32.4,71c2.2,4.8,3.9,9.9,5.9,14.8
		C594.4,269.2,594.4,270.3,594.4,271.5z"/>
	<path class="st0" d="M458.8,142.3c7.4,16.2,14.8,32.1,22.1,48.1c13,28.4,25.9,56.8,39,85.1c1.6,3.4,1.8,6.3-0.2,9.7
		c-3.6,6.1-7.3,12.2-10.1,18.7c-7.3,16.5-21.7,19-37.5,17.3c-17.3-1.8-31.8-10-46.1-19.3c-39.1-25.3-78.6-50-117.8-75.2
		c-3.8-2.5-6.3-2-9.5,0.7c-17,14.4-36.3,24.2-58.4,28c-18.5,3.1-36.3,1.1-52.3-9.8c-15.9-10.9-17.5-27.3-3.1-40.1
		c5.9-5.3,13-9.7,20.2-13c22.4-10.1,42.8-23.2,60.4-40.4c9.7-9.5,21.3-13.3,34.7-14.2c27.3-1.8,53.9,2.7,80.2,8.6
		c24.9,5.6,49,3.1,73.1-3.2C455.1,143,456.8,142.7,458.8,142.3z"/>
	<path class="st0" d="M290.7,450.7c9.2,5.4,17.5,11,26.4,15.4c6.8,3.3,14.1,5.7,21.5,7.2c6.4,1.3,9.2-4.1,11.4-9.3
		c2.3-5.2-1.2-7.6-4.7-10.2c-21.1-15.6-42.1-31.3-63.6-47.3c5.6-4.8,10.8-9.5,16.5-13.7c1.1-0.8,4.3,0.1,5.8,1.2
		c20.1,14.7,39.8,30.1,60.2,44.3c9.6,6.7,20.6,11.5,31,16.9c1.7,0.9,4.1,0.9,6.2,0.8c6.2-0.1,12-3.8,13.4-8.2
		c1.5-4.7-0.7-10.5-6.1-14.4c-28.1-20.3-56.3-40.6-84.4-60.9c-1.4-1-2.7-2.1-4.6-3.5c4.5-6.1,8.9-12,13.7-18.6
		c4.6,3.3,9.1,6.4,13.5,9.6c24.6,17.7,49.2,35.4,73.7,53.1c5.8,4.2,11.9,7.7,19.5,7.3c7.6-0.4,12.3-4.2,14.6-11.6
		c1.9-6.3,0.4-10.4-6.2-15.1c-30.5-21.9-61.1-43.7-91.7-65.5c-6.7-4.7-6.7-4.6-3.5-12.2c2-4.7,3.8-9.5,5.9-14.8
		c9.1,6.5,18,12.7,26.9,19c23.7,16.9,47.4,33.9,71.1,50.9c6,4.3,11.8,8.3,19.3,3.5c6.2-4.1,8.7-12.7,6.1-21.8
		c-1.1-3.8-3-7.3-4.4-10.8c7.8-1.5,15.4-3,23.1-4.5c10.1,16.5,8.3,47.8-16.9,59.8c-4.1,1.9-5.6,3.8-5.6,8.4
		c0,19.9-15.3,36.3-35.2,38.1c-3.1,0.3-4.7,0.9-5.1,4.5c-2.4,20.1-22.9,34.7-43,30.7c-7.6-1.5-15-4.1-22.9-6.3
		c-0.5,0.8-1.3,1.9-1.9,3.1c-9.2,17.5-23.7,24-43.2,19.3c-15.8-3.8-29.2-12.3-42.6-20.8c-1.1-0.7-2-3.3-1.6-4.6
		C285.4,463.4,287.9,457.5,290.7,450.7z"/>
	<path class="st0" d="M167,349.7c8.2-10,17.3-18.4,30.9-10.9c17.1,9.3,12.7,24.3,8.8,38.4c4.7-2.2,8.8-5.5,13.4-6.2
		c12.1-1.8,22.8,7.6,23.7,21c0.6,8.2-1,16.6-1.6,25.1c1.4-0.3,3.7-1,6-1.3c11.6-1.2,22.3,8.2,23.4,20.3c0.7,8.4-0.6,16.4-4.2,24.1
		c-1.7,3.6-3.5,7.3-5.3,10.8c-7.6,15.1-26.8,20.1-40.7,10.6c-8.1-5.5-10.4-12.1-7.7-21.3c0.4-1.4,0.9-2.9,1.7-5.2
		c-3.7,1-6.7,1.8-9.7,2.6c-8.1,2.2-15.6,0.6-22.6-3.5c-8.6-5.1-11-12.9-7.3-22.2c1-2.5,2.1-4.9,3.9-9c-11.7,6.2-22.8,9-33.2,2.9
		c-12.4-7.3-7.8-19.2-5.8-29.3c-5.8,0-11.7,0.8-17.2-0.2c-15.1-2.7-21.8-12.9-16.1-27.2c5.4-13.4,13.4-25.7,20.4-38.4
		c1-1.8,2.8-3.2,4.5-4.4c6.6-5.2,13.9-8.9,22.2-4.3c8.7,4.8,12.1,12.9,11.9,22.6c0,1.3-0.3,2.6-0.4,3.9
		C166.4,349,166.7,349.3,167,349.7z"/>
	<path class="st0" d="M91.3,103.5c6.9,2.6,13.9,5,20.7,7.9c16.9,7.2,17.8,9.6,10.2,26.2C99.5,187.5,76.7,237.3,54,287.2
		c-4.3,9.4-9.5,11.5-18.8,7.5c-4.8-2-9.5-4-14.2-6.2C5.6,281.5,2.1,272.3,9,257c7.1-15.7,14.3-31.4,21.5-47.1
		c13.5-29.6,27.1-59.3,40.6-88.9c1.4-3.1,3.1-6.2,5.1-9C79.7,107.1,84.5,104.3,91.3,103.5z"/>
	<path class="st0" d="M135.3,154.1c2.9-6.9,5.4-13.3,8.3-19.5c0.4-1,2.8-1.7,4.1-1.5c24.7,4.2,49.4,4.9,74.3,3.2
		c9.8-0.7,19.8-0.1,30.4,1.1c-8.9,7.1-17.3,14.9-26.8,21c-3.9,2.5-10,1.8-15.1,2c-24.3,0.7-48.6-0.4-72.5-5.4
		C137.3,154.7,136.6,154.5,135.3,154.1z"/>
	<path class="st0" d="M112.3,318.4c-4.2,7.5-8.2,14.5-12.6,22.3c-3.7-5.2-7.2-9.8-10.4-14.7c-5.8-8.8-11.6-17.6-17.1-26.5
		c-1-1.6-1.4-4.4-0.7-6.2c2.8-6.9,6-13.6,9.8-21.9C92.1,287.8,102.2,303.1,112.3,318.4z"/>
</g>
</svg>
