<?xml version="1.0" encoding="utf-8"?>
<!-- Generator: Adobe Illustrator 22.1.0, SVG Export Plug-In . SVG Version: 6.00 Build 0)  -->
<svg version="1.1" id="Layer_1" xmlns="http://www.w3.org/2000/svg" xmlns:xlink="http://www.w3.org/1999/xlink" x="0px" y="0px"
	 viewBox="0 0 600 600" style="enable-background:new 0 0 600 600;" xml:space="preserve">
<style type="text/css">
	.st0{fill:#FFFFFF;}
</style>
<g>
	<path class="st0" d="M149.8,272.2C146.3,181.9,211.6,112,292,108.5c95.6-4.1,157.1,76.4,157.5,147.9c0.2,45.7-16.9,82.8-48.6,114.4
		c-16.5,16.4-26.9,36.1-29.3,59.3c-1,9.7-5.2,14.2-14.5,16.4c-37.7,9.2-75.2,18.9-112.7,28.6c-7.4,1.9-15.2,3.1-17.3-5.7
		c-2.2-9.1,6.1-11.2,13-12.9c34.6-8.5,69.2-17.2,104-25.2c6.7-1.6,9.1-4.1,10.3-11.1c4.1-25.7,16.7-47.3,35.5-65.2
		c52.4-49.8,54.5-129.4,7.2-183.7c-50.1-57.7-136.9-54.8-184.3-12.7c-58.3,51.8-60.3,144.3-4.2,198c23.2,22.2,35.1,50.7,39.2,82.5
		c0.8,6.5-1.1,12.7-8.5,12.2c-3.3-0.2-8.6-5.4-9.1-8.9c-4.2-32.7-20.5-58.7-42.4-82.3C162.7,333.1,150.3,300.7,149.8,272.2z"/>
	<path class="st0" d="M319.8,326.3c-9.8,6-17.4,14.5-24.4,13.9c-6.8-0.5-13-10.2-20.1-16.5c4.1,19.7,8.5,38.3,11.6,57
		c1.8,11,2.3,22.5,1.7,33.6c-0.2,3.9-5.2,9.9-8.9,10.7c-6.9,1.6-8.5-4.4-8.6-10.5c-0.6-33.7-6.6-66.2-20.1-97.3
		c-4.1-9.5,0.3-16.2,10.3-14.6c12.6,2,24.7,6.7,38.3,10.5c8.2-2.9,18.7-8,29.8-10.4c12.3-2.6,17.5,4.5,12.9,16.5
		c-11.8,30.2-19.7,61.2-19.3,93.9c0.1,5.6-0.2,12.5-8.7,12.4c-8.7-0.1-10.3-6.8-9.5-13.1c3.1-23.7,7-47.3,10.7-71
		C316.4,337.3,318,333,319.8,326.3z"/>
	<path class="st0" d="M236,561.8c-1.8-1.7-7.3-4.6-7.5-7.9c-0.2-3.1,4.4-8.7,7.9-9.6c39.9-10.8,80-21.1,120.2-30.8
		c4.2-1,9.6,3.4,14.5,5.3c-2.7,4-4.8,10.7-8.3,11.7c-40.3,10.7-80.9,20.5-121.4,30.6C240.5,561.3,239.8,561.3,236,561.8z"/>
	<path class="st0" d="M235.1,518.6c-1.6-1.8-6.5-4.7-6.7-7.8c-0.1-3.3,3.7-9,6.8-9.8c40.9-10.7,81.9-20.9,123-30.5
		c3.7-0.9,8.6,3.8,13,6c-2.7,3.7-4.7,9.9-8.2,10.8c-40.8,10.8-81.9,20.8-122.9,31C239.5,518.4,238.7,518.4,235.1,518.6z"/>
	<path class="st0" d="M516.6,418.8c-0.4,8.6-8.9,12.7-15.2,7.7c-19.1-15.3-37.7-31.2-55.8-47.6c-2.2-2-1.6-9.4,0.3-12.9
		c0.9-1.8,9.1-2.1,11.6-0.1c18.5,14.8,36.5,30.2,54.4,45.7C514.4,413.7,515.6,417.2,516.6,418.8z"/>
	<path class="st0" d="M291.3,593.6c-6.1-2.5-17.8-6.3-28.3-12.2c-3.6-2-7.1-10.3-5.7-14c2.6-7.3,9.8-4.5,14.7-1.4
		c19.7,12.5,38.4,11.2,57.1-2.4c2.7-1.9,8.5,0.5,12.8,0.9c-1,4.4-0.5,10.4-3.2,12.8C327,587.4,313.1,593,291.3,593.6z"/>
	<path class="st0" d="M150,371.4c-2.9,4.3-4.7,8.8-7.9,11.6c-14.8,13.1-29.9,25.7-45,38.4c-5.2,4.4-11.7,7.4-15.7,0.4
		c-1.8-3.2,0.3-11.4,3.5-14.3c15.3-14.2,31.4-27.5,47.6-40.7c2.8-2.3,7.6-3,11.3-2.7C145.8,364.3,147.4,368.2,150,371.4z"/>
	<path class="st0" d="M517.3,246.9c-10.5,0-21,0.6-31.4-0.4c-3.4-0.3-6.5-4.8-9.7-7.4c2.9-3.4,5.7-9.8,8.7-9.9
		c22-0.9,44.2-0.9,66.2-0.1c3.2,0.1,6.1,5.7,9.2,8.8c-3.1,2.9-6,8-9.4,8.3c-11.1,1.1-22.4,0.4-33.7,0.4
		C517.3,246.8,517.3,246.9,517.3,246.9z"/>
	<path class="st0" d="M488.5,84c-5.7,7.9-7.5,11.8-10.5,14.4c-13.3,11.8-26.5,23.7-40.7,34.4c-3.8,2.9-12.7,4.4-15.8,2
		c-6.9-5.3-1.1-10.8,3.7-15c13.9-12.3,27.7-24.6,42-36.5c2.8-2.3,7.5-3,11.3-3C481.7,80.4,485,82.6,488.5,84z"/>
	<path class="st0" d="M78.2,246.9c-10,0-20.2,0.7-30.1-0.4c-3.3-0.3-8.5-5.1-8.5-7.8c0-3.2,4.6-9.2,7.3-9.3
		c21.2-0.8,42.5-0.9,63.7-0.2c3,0.1,5.9,6,8.8,9.2c-3.3,2.8-6.4,7.6-10,8c-10.3,1.1-20.8,0.4-31.2,0.4
		C78.2,246.8,78.2,246.9,78.2,246.9z"/>
	<path class="st0" d="M290.5,45.4c0-9.3-0.8-18.7,0.4-27.9c0.5-4,4.9-7.4,7.6-11.1c3.4,3.6,9.5,7,9.7,10.8c1,18.9,1,38,0,56.9
		c-0.2,3.9-6.1,7.4-9.4,11.1c-2.8-4-7.3-7.7-7.9-12C289.6,64.2,290.4,54.8,290.5,45.4z"/>
	<path class="st0" d="M119.2,79.7c3.5,2,6.4,3.1,8.6,5c13.8,11.8,27.8,23.4,40.8,35.9c3.1,2.9,3,9.2,4.4,13.9
		c-5.5-0.3-12.6,1.6-16.3-1.2c-13.9-10.3-27-21.8-39.8-33.6c-3.1-2.9-4.6-8.5-4.9-13C111.8,84.7,116.4,82.3,119.2,79.7z"/>
</g>
</svg>
