<?xml version="1.0" encoding="utf-8"?>
<!-- Generator: Adobe Illustrator 22.1.0, SVG Export Plug-In . SVG Version: 6.00 Build 0)  -->
<svg version="1.1" id="Layer_1" xmlns="http://www.w3.org/2000/svg" xmlns:xlink="http://www.w3.org/1999/xlink" x="0px" y="0px"
	 viewBox="0 0 600 600" style="enable-background:new 0 0 600 600;" xml:space="preserve">
<style type="text/css">
	.st0{fill:#333333;}
</style>
<g>
	<path class="st0" d="M444.7,591H203.8c-19.2,0-36.1-10.9-44.1-28.4c-8-17.5-5.1-37.4,7.5-51.9l102.5-118.3V268.6l-12.1-12.1V203
		h133.4v53.5l-12.1,12.1v123.8l102.5,118.3c12.6,14.5,15.5,34.4,7.5,51.9C480.8,580.1,463.9,591,444.7,591z M281.8,246.5l12.1,12.1
		v142.9L185.5,526.6c-6.4,7.4-7.8,17.1-3.7,26c4.1,8.9,12.3,14.2,22.1,14.2h240.8c9.8,0,18-5.3,22.1-14.2c4.1-8.9,2.7-18.6-3.7-26
		L354.6,401.5V258.6l12.1-12.1v-19.2h-84.9V246.5z"/>
	<path class="st0" d="M293.9,275.7h-12.1c-6.7,0-12.1-5.4-12.1-12.1s5.4-12.1,12.1-12.1h12.1c6.7,0,12.1,5.4,12.1,12.1
		S300.6,275.7,293.9,275.7z"/>
	<path class="st0" d="M366.7,275.7h-36.4c-6.7,0-12.1-5.4-12.1-12.1s5.4-12.1,12.1-12.1h36.4c6.7,0,12.1,5.4,12.1,12.1
		S373.4,275.7,366.7,275.7z"/>
	<path class="st0" d="M412.3,180.3c-8.9,0-17.1-0.8-23.6-2c-6.6-1.2-10.9-7.6-9.7-14.2c1.2-6.6,7.6-10.9,14.2-9.7
		c16.7,3.1,48.3,2.3,62.9-9.4c33.7-27,42.6-64.4,43.8-111.8c-48.9-0.1-103.8-0.1-136.8,32.9c-13.2,13.2-28.4,50-11.5,76.1
		c3.6,5.6,2,13.1-3.6,16.8c-5.6,3.6-13.1,2-16.8-3.6C307.8,119.1,324.7,70.2,346,49C386.4,8.5,450.3,8.9,501.4,9l22.9,0v12.1
		c0,52.1-6.4,105.5-53,142.8C456,176.3,432.4,180.3,412.3,180.3z"/>
	<path class="st0" d="M330.3,227.2c-6.7,0-12.1-5.4-12.1-12.1c0-67.2,43.3-119.9,128.6-156.6c6.1-2.6,13.3,0.2,15.9,6.4
		c2.6,6.1-0.2,13.3-6.4,15.9c-75.6,32.5-113.9,77.7-113.9,134.3C342.4,221.8,337,227.2,330.3,227.2z"/>
	<path class="st0" d="M233.2,249.9c-1,0-2-0.1-3-0.4c-26.7-6.9-45.4-31-45.4-58.7c0-33.4,27.2-60.6,60.6-60.6
		c27.6,0,51.8,18.7,58.7,45.4c1.7,6.5-2.2,13.1-8.7,14.8c-6.5,1.7-13.1-2.2-14.8-8.7c-4.2-16-18.6-27.2-35.2-27.2
		c-20.1,0-36.4,16.3-36.4,36.4c0,16.6,11.2,31.1,27.2,35.2c6.5,1.7,10.4,8.3,8.7,14.8C243.6,246.3,238.6,249.9,233.2,249.9z"/>
	<path class="st0" d="M403.1,348.5c-6.7,0-12.1-5.4-12.1-12.1c0-6.7,5.4-12.1,12.1-12.1c20.1,0,36.4-16.3,36.4-36.4
		c0-16.6-11.2-31.1-27.2-35.2c-6.5-1.7-10.4-8.3-8.7-14.8c1.7-6.5,8.3-10.5,14.8-8.7c26.7,6.9,45.4,31,45.4,58.7
		C463.7,321.3,436.5,348.5,403.1,348.5z"/>
	<path class="st0" d="M178.7,372.7c-30.1,0-54.6-24.5-54.6-54.6c0-30.1,24.5-54.6,54.6-54.6s54.6,24.5,54.6,54.6
		C233.3,348.3,208.8,372.7,178.7,372.7z M178.7,287.9c-16.7,0-30.3,13.6-30.3,30.3s13.6,30.3,30.3,30.3s30.3-13.6,30.3-30.3
		S195.5,287.9,178.7,287.9z"/>
	<path class="st0" d="M124.2,154.5c-26.7,0-48.5-21.8-48.5-48.5s21.8-48.5,48.5-48.5s48.5,21.8,48.5,48.5S150.9,154.5,124.2,154.5z
		 M124.2,81.7c-13.4,0-24.3,10.9-24.3,24.3s10.9,24.3,24.3,24.3s24.3-10.9,24.3-24.3S137.6,81.7,124.2,81.7z"/>
	<rect x="221.2" y="69.6" class="st0" width="24.3" height="24.3"/>
	<rect x="136.3" y="215.1" class="st0" width="24.3" height="24.3"/>
	<path class="st0" d="M439.4,494H306.1c-6.7,0-12.1-5.4-12.1-12.1s5.4-12.1,12.1-12.1h133.4c6.7,0,12.1,5.4,12.1,12.1
		S446.1,494,439.4,494z"/>
	<path class="st0" d="M257.6,494h-48.5c-6.7,0-12.1-5.4-12.1-12.1s5.4-12.1,12.1-12.1h48.5c6.7,0,12.1,5.4,12.1,12.1
		S264.3,494,257.6,494z"/>
</g>
</svg>
